# xmcd
#
# Track frame offsets: 
#        150
#        13487
#        29200
#        43382
#        59915
#        75017
#        90905
#        105027
#        117160
#        131787
#        145827
#        159195
#        171957
#        185730
#        198287
#
# Disc length: 2866 seconds
#
# Revision: 1
# Processed by: cddbd v1.5.2PL0 Copyright (c) Steve Scherf et al.
# Submitted via: ExactAudioCopy v1.0b4
#
DISCID=cb0b300f
DTITLE=Jorge de Altinho - No Balanço Da Rede
DYEAR=2002
DGENRE=Forró
TTITLE0=No Balanço Da Rede
TTITLE1=A Saudade
TTITLE2=Sou Eu
TTITLE3=Anjo Querubim
TTITLE4=Queimei Seu Tavesseiro
TTITLE5=Lembro Sempre De Você
TTITLE6=Carregado De Amor
TTITLE7=Minha Cigana
TTITLE8=Tá Vendo Amor
TTITLE9=Saudade Baiana
TTITLE10=Coisas Do Coração
TTITLE11=Feliz Por Te Amar
TTITLE12=Quero Ver Amor
TTITLE13=Chega De Sofrer
TTITLE14=Nas Quebradas Do Sertão
EXTD=
EXTT0=
EXTT1=
EXTT2=
EXTT3=
EXTT4=
EXTT5=
EXTT6=
EXTT7=
EXTT8=
EXTT9=
EXTT10=
EXTT11=
EXTT12=
EXTT13=
EXTT14=
PLAYORDER=
